PathFileType	4	(X/Y/Z)	S1_rest_fast_left.trc
DataRate	CameraRate	NumFrames	NumMarkers	Units	OrigDataRate	OrigDataStartFrame	OrigNumFrames
250.00	250.00	8	18	mm	250.00	11902	23803
Frame#	Time	c7	r_should	l_should	clavicle	r_upa	r_elb_l	r_elb_m	r_low	r_wri_l	r_wri_m	r_met	l_upa	l_elb_l	l_elb_m	l_low	l_wri_l	l_wri_m	l_met
	X1	Y1	Z1	X2	Y2	Z2	X3	Y3	Z3	X4	Y4	Z4	X5	Y5	Z5	X6	Y6	Z6	X7	Y7	Z7	X8	Y8	Z8	X9	Y9	Z9	X10	Y10	Z10	X11	Y11	Z11	X12	Y12	Z12	X13	Y13	Z13	X14	Y14	Z14	X15	Y15	Z15	X16	Y16	Z16	X17	Y17	Z17	X18	Y18	Z18
11902	47.60400	378.50778	1416.73840	95.52169	480.22919	1351.72266	261.79999	372.87781	1376.68005	-83.58943	518.76526	1306.08911	55.09753	475.01321	1153.27747	329.75665	496.59717	1055.59900	341.59656	421.34698	1026.44861	281.10681	488.23074	922.66333	356.80530	584.21948	861.86041	311.14020	524.62262	828.66376	334.33087	639.82703	786.18591	319.34418	444.96863	1184.40625	-152.67595	464.30893	1144.47791	-171.75090	501.84000	1086.58997	-79.59812	570.72772	1192.32007	-133.97054	555.66583	1297.82178	-135.33812	607.50104	1277.49304	-89.15041	598.31451	1360.00989	-153.72037
11903	47.60800	378.58630	1416.75769	95.45461	480.27707	1351.73438	261.77200	373.00031	1376.66040	-83.64481	518.95984	1305.99536	55.28358	475.01706	1153.29932	329.73859	496.58945	1055.62292	341.59076	421.33344	1026.47498	281.10873	488.20255	922.68683	356.80548	584.18982	861.86560	311.14789	524.58173	828.68634	334.33664	639.79144	786.18884	319.36041	445.05087	1184.34351	-152.67917	464.37433	1144.41309	-171.75247	501.86752	1086.55237	-79.58370	570.82837	1192.22388	-133.97548	555.83215	1297.72583	-135.36786	607.62677	1277.39001	-89.17105	598.51941	1359.89893	-153.78819
11904	47.61200	378.66791	1416.77563	95.38744	480.33127	1351.74890	261.73975	373.11978	1376.64038	-83.70497	519.12732	1305.82617	55.46048	475.02713	1153.32654	329.71854	496.57434	1055.64075	341.58124	421.32538	1026.49854	281.10104	488.17349	922.70789	356.80246	584.16089	861.87103	311.15878	524.54034	828.70294	334.33572	639.75323	786.19159	319.37698	445.12546	1184.28918	-152.68388	464.43362	1144.35193	-171.75542	501.86914	1086.50513	-79.60571	570.93634	1192.12585	-133.98698	556.00165	1297.63342	-135.40695	607.75653	1277.29626	-89.19841	598.74402	1359.80872	-153.84845
11905	47.61600	378.75278	1416.79822	95.32218	480.38132	1351.75903	261.70294	373.24719	1376.62402	-83.76777	518.89331	1306.08569	54.91947	475.04044	1153.35034	329.69330	496.62506	1055.68396	341.66974	421.32040	1026.51440	281.08224	488.14160	922.72626	356.79871	584.12708	861.87769	311.17679	524.49579	828.71613	334.34338	639.71051	786.19360	319.40067	445.19681	1184.24414	-152.69911	464.49524	1144.28662	-171.76628	501.87994	1086.45764	-79.61777	571.04529	1192.02771	-133.99582	556.17798	1297.54150	-135.45367	607.89313	1277.20483	-89.23172	598.95837	1359.72046	-153.90100
11906	47.62000	378.83990	1416.81250	95.26115	480.42780	1351.76660	261.66745	373.36743	1376.61084	-83.82055	519.01880	1306.12073	54.93507	475.04559	1153.37134	329.68314	496.69507	1055.73267	341.79474	421.30475	1026.53125	281.06314	488.10715	922.74323	356.80008	584.08527	861.88910	311.19986	524.45020	828.72845	334.35632	639.66412	786.19812	319.42908	445.27524	1184.19678	-152.71335	464.55826	1144.22461	-171.78409	501.89902	1086.40283	-79.61385	571.15454	1191.92871	-134.01244	556.35559	1297.45154	-135.50102	608.03796	1277.10608	-89.26035	599.16833	1359.61938	-153.93646
11907	47.62400	378.92426	1416.82495	95.19716	480.47089	1351.77698	261.63895	373.47974	1376.60095	-83.86436	519.10327	1306.11694	54.91710	475.04245	1153.39832	329.67294	496.55463	1055.72583	341.62955	421.29315	1026.54785	281.05933	488.07538	922.75977	356.80576	584.04028	861.89490	311.22141	524.39648	828.74261	334.37396	639.61884	786.20685	319.46103	445.35571	1184.14734	-152.72365	464.61963	1144.15479	-171.78583	501.91165	1086.34424	-79.61545	571.26294	1191.83276	-134.02385	556.52979	1297.37231	-135.55489	608.19147	1277.00562	-89.27800	599.36896	1359.51208	-153.95665
11908	47.62800	379.00125	1416.84155	95.13476	480.51398	1351.79077	261.61176	373.59604	1376.59448	-83.91119	519.31030	1305.96985	55.14000	475.04025	1153.42090	329.66174	496.50574	1055.74182	341.59219	421.28537	1026.56860	281.05176	488.03931	922.77936	356.81567	583.99451	861.90521	311.25070	524.34021	828.75690	334.39526	639.56781	786.21313	319.50153	445.42871	1184.10181	-152.73543	464.68298	1144.08862	-171.78435	501.92850	1086.29578	-79.59858	571.37170	1191.73596	-134.02895	556.70953	1297.28772	-135.60742	608.31177	1276.92847	-89.36624	599.57294	1359.40771	-153.98807
11909	47.63200	379.08154	1416.85791	95.07619	480.55991	1351.80713	261.58719	373.70230	1376.59351	-83.95771	519.55768	1305.78821	55.43921	475.04105	1153.44556	329.65955	496.47675	1055.76416	341.58334	421.28256	1026.58887	281.04446	488.00272	922.79669	356.82684	583.94360	861.91711	311.28650	524.28320	828.77252	334.42108	639.51373	786.22150	319.54532	445.49997	1184.05908	-152.74321	464.74359	1144.02869	-171.77922	501.98145	1086.27063	-79.57344	571.47717	1191.63733	-134.03996	556.89050	1297.20068	-135.65788	608.38953	1276.87769	-89.53876	599.78717	1359.28906	-154.04227
